<mxfile host="app.diagrams.net" modified="2021-03-16T14:45:46.927Z" agent="5.0 (Windows)" etag="BwImUUlyUa98woBQ-BXX" version="14.4.8" type="github">
  <diagram name="Page-1" id="c7558073-3199-34d8-9f00-42111426c3f3">
    <mxGraphModel dx="1736" dy="487" grid="0" gridSize="10" guides="1" tooltips="1" connect="1" arrows="1" fold="1" page="1" pageScale="1" pageWidth="826" pageHeight="1169" background="#ffffff" math="0" shadow="0">
      <root>
        <mxCell id="0" />
        <mxCell id="1" parent="0" />
        <mxCell id="12" value="Management" style="whiteSpace=wrap;align=center;verticalAlign=middle;fontStyle=1;strokeWidth=3;fillColor=#FFFFCC" parent="1" vertex="1">
          <mxGeometry x="691" y="60.00000000000002" width="90" height="60" as="geometry" />
        </mxCell>
        <mxCell id="9lEx_p70Bkjh4PU-J2n_-98" value="" style="edgeStyle=orthogonalEdgeStyle;rounded=0;orthogonalLoop=1;jettySize=auto;html=1;" edge="1" parent="1" source="9lEx_p70Bkjh4PU-J2n_-96" target="9lEx_p70Bkjh4PU-J2n_-97">
          <mxGeometry relative="1" as="geometry" />
        </mxCell>
        <mxCell id="9lEx_p70Bkjh4PU-J2n_-96" value="特征提取单元" style="whiteSpace=wrap;align=center;verticalAlign=middle;fontStyle=0;strokeWidth=3;fillColor=#FFFFCC" vertex="1" parent="1">
          <mxGeometry x="245" y="210" width="120" height="40" as="geometry" />
        </mxCell>
        <mxCell id="9lEx_p70Bkjh4PU-J2n_-100" value="" style="edgeStyle=orthogonalEdgeStyle;rounded=0;orthogonalLoop=1;jettySize=auto;html=1;" edge="1" parent="1" source="9lEx_p70Bkjh4PU-J2n_-97" target="9lEx_p70Bkjh4PU-J2n_-99">
          <mxGeometry relative="1" as="geometry" />
        </mxCell>
        <mxCell id="9lEx_p70Bkjh4PU-J2n_-97" value="&amp;nbsp;盗打判定单元 " style="whiteSpace=wrap;html=1;fontStyle=0;strokeWidth=3;fillColor=#FFFFCC;" vertex="1" parent="1">
          <mxGeometry x="245" y="290" width="120" height="40" as="geometry" />
        </mxCell>
        <mxCell id="9lEx_p70Bkjh4PU-J2n_-102" value="" style="edgeStyle=orthogonalEdgeStyle;rounded=0;orthogonalLoop=1;jettySize=auto;html=1;" edge="1" parent="1" source="9lEx_p70Bkjh4PU-J2n_-99" target="9lEx_p70Bkjh4PU-J2n_-101">
          <mxGeometry relative="1" as="geometry" />
        </mxCell>
        <mxCell id="9lEx_p70Bkjh4PU-J2n_-99" value="信息汇报单元" style="whiteSpace=wrap;html=1;fontStyle=0;strokeWidth=3;fillColor=#FFFFCC;" vertex="1" parent="1">
          <mxGeometry x="245" y="370" width="120" height="40" as="geometry" />
        </mxCell>
        <mxCell id="9lEx_p70Bkjh4PU-J2n_-101" value="功能关停单元" style="whiteSpace=wrap;html=1;fontStyle=0;strokeWidth=3;fillColor=#FFFFCC;" vertex="1" parent="1">
          <mxGeometry x="245" y="450" width="120" height="40" as="geometry" />
        </mxCell>
        <mxCell id="9lEx_p70Bkjh4PU-J2n_-106" value="短信通知" style="edgeStyle=orthogonalEdgeStyle;rounded=0;orthogonalLoop=1;jettySize=auto;html=1;" edge="1" parent="1" source="9lEx_p70Bkjh4PU-J2n_-104" target="9lEx_p70Bkjh4PU-J2n_-105">
          <mxGeometry relative="1" as="geometry" />
        </mxCell>
        <mxCell id="9lEx_p70Bkjh4PU-J2n_-104" value="集团风控平台" style="rounded=0;whiteSpace=wrap;html=1;" vertex="1" parent="1">
          <mxGeometry x="499" y="208" width="120" height="60" as="geometry" />
        </mxCell>
        <mxCell id="9lEx_p70Bkjh4PU-J2n_-108" value="电话通知" style="edgeStyle=orthogonalEdgeStyle;rounded=0;orthogonalLoop=1;jettySize=auto;html=1;" edge="1" parent="1" source="9lEx_p70Bkjh4PU-J2n_-105" target="9lEx_p70Bkjh4PU-J2n_-107">
          <mxGeometry relative="1" as="geometry" />
        </mxCell>
        <mxCell id="9lEx_p70Bkjh4PU-J2n_-105" value="省侧部门接口人" style="whiteSpace=wrap;html=1;rounded=0;" vertex="1" parent="1">
          <mxGeometry x="499" y="348" width="120" height="60" as="geometry" />
        </mxCell>
        <mxCell id="9lEx_p70Bkjh4PU-J2n_-110" value="电话通知" style="edgeStyle=orthogonalEdgeStyle;rounded=0;orthogonalLoop=1;jettySize=auto;html=1;" edge="1" parent="1" source="9lEx_p70Bkjh4PU-J2n_-107" target="9lEx_p70Bkjh4PU-J2n_-109">
          <mxGeometry relative="1" as="geometry" />
        </mxCell>
        <mxCell id="9lEx_p70Bkjh4PU-J2n_-107" value="地市产品接口人" style="whiteSpace=wrap;html=1;rounded=0;" vertex="1" parent="1">
          <mxGeometry x="499" y="488" width="120" height="60" as="geometry" />
        </mxCell>
        <mxCell id="9lEx_p70Bkjh4PU-J2n_-109" value="客户经理" style="whiteSpace=wrap;html=1;rounded=0;" vertex="1" parent="1">
          <mxGeometry x="499" y="628" width="120" height="60" as="geometry" />
        </mxCell>
        <mxCell id="9lEx_p70Bkjh4PU-J2n_-112" value="正常" style="edgeStyle=orthogonalEdgeStyle;rounded=0;orthogonalLoop=1;jettySize=auto;html=1;" edge="1" parent="1" source="9lEx_p70Bkjh4PU-J2n_-115" target="9lEx_p70Bkjh4PU-J2n_-119">
          <mxGeometry relative="1" as="geometry" />
        </mxCell>
        <mxCell id="9lEx_p70Bkjh4PU-J2n_-113" value="失效" style="edgeStyle=orthogonalEdgeStyle;rounded=0;orthogonalLoop=1;jettySize=auto;html=1;" edge="1" parent="1" source="9lEx_p70Bkjh4PU-J2n_-115" target="9lEx_p70Bkjh4PU-J2n_-120">
          <mxGeometry relative="1" as="geometry" />
        </mxCell>
        <mxCell id="9lEx_p70Bkjh4PU-J2n_-114" value="未绑定IP" style="edgeStyle=orthogonalEdgeStyle;rounded=0;orthogonalLoop=1;jettySize=auto;html=1;" edge="1" parent="1" source="9lEx_p70Bkjh4PU-J2n_-115" target="9lEx_p70Bkjh4PU-J2n_-122">
          <mxGeometry relative="1" as="geometry" />
        </mxCell>
        <mxCell id="9lEx_p70Bkjh4PU-J2n_-115" value="判断成员状态" style="rhombus;whiteSpace=wrap;html=1;fillColor=#fff2cc;strokeColor=#d6b656;" vertex="1" parent="1">
          <mxGeometry x="178" y="624" width="80" height="80" as="geometry" />
        </mxCell>
        <mxCell id="9lEx_p70Bkjh4PU-J2n_-116" value="IP接入模式" style="edgeStyle=orthogonalEdgeStyle;rounded=0;orthogonalLoop=1;jettySize=auto;html=1;" edge="1" parent="1" source="9lEx_p70Bkjh4PU-J2n_-119" target="9lEx_p70Bkjh4PU-J2n_-126">
          <mxGeometry relative="1" as="geometry" />
        </mxCell>
        <mxCell id="9lEx_p70Bkjh4PU-J2n_-117" value="" style="edgeStyle=orthogonalEdgeStyle;rounded=0;orthogonalLoop=1;jettySize=auto;html=1;entryX=0.5;entryY=0;entryDx=0;entryDy=0;" edge="1" parent="1" source="9lEx_p70Bkjh4PU-J2n_-119" target="9lEx_p70Bkjh4PU-J2n_-130">
          <mxGeometry relative="1" as="geometry">
            <mxPoint x="368" y="824" as="targetPoint" />
          </mxGeometry>
        </mxCell>
        <mxCell id="9lEx_p70Bkjh4PU-J2n_-118" value="专线接入E1模式" style="edgeLabel;html=1;align=center;verticalAlign=middle;resizable=0;points=[];" vertex="1" connectable="0" parent="9lEx_p70Bkjh4PU-J2n_-117">
          <mxGeometry x="-0.425" y="-2" relative="1" as="geometry">
            <mxPoint as="offset" />
          </mxGeometry>
        </mxCell>
        <mxCell id="9lEx_p70Bkjh4PU-J2n_-119" value="判断接入方式" style="rhombus;whiteSpace=wrap;html=1;fillColor=#fff2cc;strokeColor=#d6b656;" vertex="1" parent="1">
          <mxGeometry x="178" y="784" width="80" height="80" as="geometry" />
        </mxCell>
        <mxCell id="9lEx_p70Bkjh4PU-J2n_-120" value="&lt;div&gt;关停AS网元成员&lt;/div&gt;&lt;div&gt;呼入呼出闭锁&lt;/div&gt;" style="whiteSpace=wrap;html=1;" vertex="1" parent="1">
          <mxGeometry x="318" y="634" width="120" height="60" as="geometry" />
        </mxCell>
        <mxCell id="9lEx_p70Bkjh4PU-J2n_-121" value="&lt;div&gt;关停AS网元成员&lt;/div&gt;&lt;div&gt;呼入呼出闭锁&lt;/div&gt;" style="whiteSpace=wrap;html=1;fillColor=#fff2cc;strokeColor=#d6b656;" vertex="1" parent="1">
          <mxGeometry x="318" y="634" width="120" height="60" as="geometry" />
        </mxCell>
        <mxCell id="9lEx_p70Bkjh4PU-J2n_-122" value="&lt;div&gt;关停AS网元成员&lt;/div&gt;&lt;div&gt;呼入呼出闭锁&lt;/div&gt;" style="whiteSpace=wrap;html=1;fillColor=#fff2cc;strokeColor=#d6b656;" vertex="1" parent="1">
          <mxGeometry x="-2" y="634" width="120" height="60" as="geometry" />
        </mxCell>
        <mxCell id="9lEx_p70Bkjh4PU-J2n_-123" value="" style="edgeStyle=orthogonalEdgeStyle;rounded=0;orthogonalLoop=1;jettySize=auto;html=1;" edge="1" parent="1" source="9lEx_p70Bkjh4PU-J2n_-126" target="9lEx_p70Bkjh4PU-J2n_-127">
          <mxGeometry relative="1" as="geometry" />
        </mxCell>
        <mxCell id="9lEx_p70Bkjh4PU-J2n_-124" value="全网IP" style="edgeLabel;html=1;align=center;verticalAlign=middle;resizable=0;points=[];" vertex="1" connectable="0" parent="9lEx_p70Bkjh4PU-J2n_-123">
          <mxGeometry x="-0.2889" y="-1" relative="1" as="geometry">
            <mxPoint as="offset" />
          </mxGeometry>
        </mxCell>
        <mxCell id="9lEx_p70Bkjh4PU-J2n_-125" value="固定IP" style="edgeStyle=orthogonalEdgeStyle;rounded=0;orthogonalLoop=1;jettySize=auto;html=1;" edge="1" parent="1" source="9lEx_p70Bkjh4PU-J2n_-126" target="9lEx_p70Bkjh4PU-J2n_-130">
          <mxGeometry relative="1" as="geometry" />
        </mxCell>
        <mxCell id="9lEx_p70Bkjh4PU-J2n_-126" value="&lt;div&gt;判断HSS&lt;/div&gt;&lt;div&gt;绑定模板&lt;/div&gt;" style="rhombus;whiteSpace=wrap;html=1;fillColor=#fff2cc;strokeColor=#d6b656;" vertex="1" parent="1">
          <mxGeometry x="178" y="944" width="80" height="80" as="geometry" />
        </mxCell>
        <mxCell id="9lEx_p70Bkjh4PU-J2n_-127" value="&lt;div&gt;关停AS网元成员&lt;/div&gt;&lt;div&gt;呼入呼出闭锁&lt;/div&gt;" style="whiteSpace=wrap;html=1;fillColor=#fff2cc;strokeColor=#d6b656;" vertex="1" parent="1">
          <mxGeometry x="158" y="1114" width="120" height="60" as="geometry" />
        </mxCell>
        <mxCell id="9lEx_p70Bkjh4PU-J2n_-128" value="是" style="edgeStyle=orthogonalEdgeStyle;rounded=0;orthogonalLoop=1;jettySize=auto;html=1;" edge="1" parent="1" source="9lEx_p70Bkjh4PU-J2n_-130" target="9lEx_p70Bkjh4PU-J2n_-133">
          <mxGeometry relative="1" as="geometry" />
        </mxCell>
        <mxCell id="9lEx_p70Bkjh4PU-J2n_-129" value="否" style="edgeStyle=orthogonalEdgeStyle;rounded=0;orthogonalLoop=1;jettySize=auto;html=1;" edge="1" parent="1" source="9lEx_p70Bkjh4PU-J2n_-130" target="9lEx_p70Bkjh4PU-J2n_-136">
          <mxGeometry relative="1" as="geometry" />
        </mxCell>
        <mxCell id="9lEx_p70Bkjh4PU-J2n_-130" value="&lt;div&gt;判断并发&lt;/div&gt;&lt;div&gt;呼叫路数是否允许多路并发&lt;/div&gt;" style="rhombus;whiteSpace=wrap;html=1;fillColor=#fff2cc;strokeColor=#d6b656;" vertex="1" parent="1">
          <mxGeometry x="338" y="944" width="80" height="80" as="geometry" />
        </mxCell>
        <mxCell id="9lEx_p70Bkjh4PU-J2n_-131" value="是" style="edgeStyle=orthogonalEdgeStyle;rounded=0;orthogonalLoop=1;jettySize=auto;html=1;" edge="1" parent="1" source="9lEx_p70Bkjh4PU-J2n_-133" target="9lEx_p70Bkjh4PU-J2n_-134">
          <mxGeometry relative="1" as="geometry" />
        </mxCell>
        <mxCell id="9lEx_p70Bkjh4PU-J2n_-132" value="否" style="edgeStyle=orthogonalEdgeStyle;rounded=0;orthogonalLoop=1;jettySize=auto;html=1;" edge="1" parent="1" source="9lEx_p70Bkjh4PU-J2n_-133" target="9lEx_p70Bkjh4PU-J2n_-137">
          <mxGeometry relative="1" as="geometry" />
        </mxCell>
        <mxCell id="9lEx_p70Bkjh4PU-J2n_-133" value="判断功能集是否支持国际呼叫" style="rhombus;whiteSpace=wrap;html=1;fillColor=#fff2cc;strokeColor=#d6b656;" vertex="1" parent="1">
          <mxGeometry x="338" y="1104" width="80" height="80" as="geometry" />
        </mxCell>
        <mxCell id="9lEx_p70Bkjh4PU-J2n_-134" value="用户正常国际呼叫" style="whiteSpace=wrap;html=1;fillColor=#fff2cc;strokeColor=#d6b656;" vertex="1" parent="1">
          <mxGeometry x="318" y="1274" width="120" height="60" as="geometry" />
        </mxCell>
        <mxCell id="9lEx_p70Bkjh4PU-J2n_-135" style="edgeStyle=orthogonalEdgeStyle;rounded=0;orthogonalLoop=1;jettySize=auto;html=1;exitX=0.5;exitY=1;exitDx=0;exitDy=0;" edge="1" parent="1" source="9lEx_p70Bkjh4PU-J2n_-136">
          <mxGeometry relative="1" as="geometry">
            <mxPoint x="378" y="1059" as="targetPoint" />
          </mxGeometry>
        </mxCell>
        <mxCell id="9lEx_p70Bkjh4PU-J2n_-136" value="重置并发呼叫路数" style="whiteSpace=wrap;html=1;fillColor=#fff2cc;strokeColor=#d6b656;" vertex="1" parent="1">
          <mxGeometry x="478" y="954" width="120" height="60" as="geometry" />
        </mxCell>
        <mxCell id="9lEx_p70Bkjh4PU-J2n_-137" value="重置国际呼叫权限功能集" style="whiteSpace=wrap;html=1;fillColor=#fff2cc;strokeColor=#d6b656;" vertex="1" parent="1">
          <mxGeometry x="478" y="1114" width="120" height="60" as="geometry" />
        </mxCell>
        <mxCell id="9lEx_p70Bkjh4PU-J2n_-138" style="edgeStyle=orthogonalEdgeStyle;rounded=0;orthogonalLoop=1;jettySize=auto;html=1;exitX=0.5;exitY=1;exitDx=0;exitDy=0;entryX=0.5;entryY=0;entryDx=0;entryDy=0;" edge="1" parent="1" source="9lEx_p70Bkjh4PU-J2n_-139" target="9lEx_p70Bkjh4PU-J2n_-115">
          <mxGeometry relative="1" as="geometry" />
        </mxCell>
        <mxCell id="9lEx_p70Bkjh4PU-J2n_-139" value="输入特征信息" style="rounded=0;whiteSpace=wrap;html=1;fillColor=#fff2cc;strokeColor=#d6b656;" vertex="1" parent="1">
          <mxGeometry x="170" y="552" width="92" height="41" as="geometry" />
        </mxCell>
        <mxCell id="9lEx_p70Bkjh4PU-J2n_-140" value="&lt;font style=&quot;font-size: 13px&quot;&gt;现有流程处理方法&lt;/font&gt;" style="swimlane;html=1;childLayout=stackLayout;horizontal=1;startSize=20;horizontalStack=0;rounded=0;shadow=0;labelBackgroundColor=none;strokeWidth=1;fontFamily=Verdana;fontSize=8;align=center;fontStyle=0;fillColor=#dae8fc;strokeColor=#6c8ebf;" vertex="1" parent="1">
          <mxGeometry x="732" y="142" width="680" height="620" as="geometry" />
        </mxCell>
        <mxCell id="9lEx_p70Bkjh4PU-J2n_-141" value="集团风控平台" style="swimlane;html=1;startSize=20;horizontal=0;fontStyle=0;fillColor=#dae8fc;strokeColor=#6c8ebf;" vertex="1" parent="9lEx_p70Bkjh4PU-J2n_-140">
          <mxGeometry y="20" width="680" height="150" as="geometry" />
        </mxCell>
        <mxCell id="9lEx_p70Bkjh4PU-J2n_-142" value="&lt;div style=&quot;font-size: 12px&quot;&gt;&lt;font style=&quot;font-size: 12px&quot;&gt;国际关口局&lt;/font&gt;&lt;/div&gt;&lt;div style=&quot;font-size: 12px&quot;&gt;&lt;font style=&quot;font-size: 12px&quot;&gt;分析话单&lt;/font&gt;&lt;/div&gt;" style="rounded=1;whiteSpace=wrap;html=1;shadow=0;labelBackgroundColor=none;strokeWidth=1;fontFamily=Verdana;fontSize=8;align=center;fontStyle=0;fillColor=#fff2cc;strokeColor=#d6b656;" vertex="1" parent="9lEx_p70Bkjh4PU-J2n_-141">
          <mxGeometry x="120" y="56.49999999999997" width="70" height="37" as="geometry" />
        </mxCell>
        <mxCell id="9lEx_p70Bkjh4PU-J2n_-143" value="&lt;div&gt;省部门接口人&lt;/div&gt;" style="swimlane;html=1;startSize=20;horizontal=0;fontStyle=0;fillColor=#dae8fc;strokeColor=#6c8ebf;" vertex="1" parent="9lEx_p70Bkjh4PU-J2n_-140">
          <mxGeometry y="170" width="680" height="150" as="geometry" />
        </mxCell>
        <mxCell id="9lEx_p70Bkjh4PU-J2n_-144" value="&lt;font style=&quot;font-size: 12px&quot;&gt;通知地市客户经理&lt;/font&gt;" style="rounded=1;whiteSpace=wrap;html=1;shadow=0;labelBackgroundColor=none;strokeWidth=1;fontFamily=Verdana;fontSize=8;align=center;fontStyle=0;fillColor=#fff2cc;strokeColor=#d6b656;" vertex="1" parent="9lEx_p70Bkjh4PU-J2n_-143">
          <mxGeometry x="120" y="49.99999999999996" width="70" height="37" as="geometry" />
        </mxCell>
        <mxCell id="9lEx_p70Bkjh4PU-J2n_-145" style="edgeStyle=orthogonalEdgeStyle;rounded=0;html=1;labelBackgroundColor=none;startArrow=none;startFill=0;startSize=5;endArrow=classicThin;endFill=1;endSize=5;jettySize=auto;orthogonalLoop=1;strokeWidth=1;fontFamily=Verdana;fontSize=8;fontStyle=0" edge="1" parent="9lEx_p70Bkjh4PU-J2n_-140" source="9lEx_p70Bkjh4PU-J2n_-142" target="9lEx_p70Bkjh4PU-J2n_-144">
          <mxGeometry relative="1" as="geometry" />
        </mxCell>
        <mxCell id="9lEx_p70Bkjh4PU-J2n_-146" value="下发疑似盗打固话预警短信" style="edgeLabel;html=1;align=center;verticalAlign=middle;resizable=0;points=[];" vertex="1" connectable="0" parent="9lEx_p70Bkjh4PU-J2n_-145">
          <mxGeometry x="0.251" y="-2" relative="1" as="geometry">
            <mxPoint as="offset" />
          </mxGeometry>
        </mxCell>
        <mxCell id="9lEx_p70Bkjh4PU-J2n_-147" style="edgeStyle=orthogonalEdgeStyle;rounded=0;orthogonalLoop=1;jettySize=auto;html=1;exitX=0.5;exitY=1;exitDx=0;exitDy=0;" edge="1" parent="9lEx_p70Bkjh4PU-J2n_-140" source="9lEx_p70Bkjh4PU-J2n_-144" target="9lEx_p70Bkjh4PU-J2n_-152">
          <mxGeometry relative="1" as="geometry" />
        </mxCell>
        <mxCell id="9lEx_p70Bkjh4PU-J2n_-148" value="电话通知" style="edgeLabel;html=1;align=center;verticalAlign=middle;resizable=0;points=[];" vertex="1" connectable="0" parent="9lEx_p70Bkjh4PU-J2n_-147">
          <mxGeometry x="-0.2492" relative="1" as="geometry">
            <mxPoint as="offset" />
          </mxGeometry>
        </mxCell>
        <mxCell id="9lEx_p70Bkjh4PU-J2n_-149" style="edgeStyle=orthogonalEdgeStyle;rounded=0;orthogonalLoop=1;jettySize=auto;html=1;exitX=0.5;exitY=1;exitDx=0;exitDy=0;" edge="1" parent="9lEx_p70Bkjh4PU-J2n_-140" source="9lEx_p70Bkjh4PU-J2n_-152" target="9lEx_p70Bkjh4PU-J2n_-154">
          <mxGeometry relative="1" as="geometry" />
        </mxCell>
        <mxCell id="9lEx_p70Bkjh4PU-J2n_-150" value="电话通知" style="edgeLabel;html=1;align=center;verticalAlign=middle;resizable=0;points=[];" vertex="1" connectable="0" parent="9lEx_p70Bkjh4PU-J2n_-149">
          <mxGeometry x="-0.1681" y="-3" relative="1" as="geometry">
            <mxPoint as="offset" />
          </mxGeometry>
        </mxCell>
        <mxCell id="9lEx_p70Bkjh4PU-J2n_-151" value="地市产品接口人" style="swimlane;html=1;startSize=20;horizontal=0;fontStyle=0;fillColor=#dae8fc;strokeColor=#6c8ebf;" vertex="1" parent="9lEx_p70Bkjh4PU-J2n_-140">
          <mxGeometry y="320" width="680" height="150" as="geometry" />
        </mxCell>
        <mxCell id="9lEx_p70Bkjh4PU-J2n_-152" value="&lt;font style=&quot;font-size: 12px&quot;&gt;查询固话所属集团和集团客户经理&lt;/font&gt;" style="rounded=1;whiteSpace=wrap;html=1;shadow=0;labelBackgroundColor=none;strokeWidth=1;fontFamily=Verdana;fontSize=8;align=center;fontStyle=0;arcSize=7;fillColor=#fff2cc;strokeColor=#d6b656;" vertex="1" parent="9lEx_p70Bkjh4PU-J2n_-151">
          <mxGeometry x="110" y="31" width="87.5" height="45" as="geometry" />
        </mxCell>
        <mxCell id="9lEx_p70Bkjh4PU-J2n_-153" value="地市客户经理" style="swimlane;html=1;startSize=20;horizontal=0;fontStyle=0;fillColor=#dae8fc;strokeColor=#6c8ebf;" vertex="1" parent="9lEx_p70Bkjh4PU-J2n_-140">
          <mxGeometry y="470" width="680" height="150" as="geometry">
            <mxRectangle y="470" width="680" height="20" as="alternateBounds" />
          </mxGeometry>
        </mxCell>
        <mxCell id="9lEx_p70Bkjh4PU-J2n_-154" value="&lt;font style=&quot;font-size: 12px&quot;&gt;查询省BOSS、AS网元、HSS网元开通信息&lt;/font&gt;" style="rounded=1;whiteSpace=wrap;html=1;shadow=0;labelBackgroundColor=none;strokeWidth=1;fontFamily=Verdana;fontSize=8;align=center;fontStyle=0;fillColor=#fff2cc;strokeColor=#d6b656;" vertex="1" parent="9lEx_p70Bkjh4PU-J2n_-153">
          <mxGeometry x="109" y="34" width="97" height="49" as="geometry" />
        </mxCell>
        <mxCell id="9lEx_p70Bkjh4PU-J2n_-155" value="&lt;font style=&quot;font-size: 12px&quot;&gt;通知集团联系人&lt;/font&gt;" style="whiteSpace=wrap;html=1;rounded=1;shadow=0;fontFamily=Verdana;fontSize=8;fontStyle=0;strokeWidth=1;fillColor=#fff2cc;strokeColor=#d6b656;" vertex="1" parent="9lEx_p70Bkjh4PU-J2n_-153">
          <mxGeometry x="495" y="88.5" width="80" height="43" as="geometry" />
        </mxCell>
        <mxCell id="9lEx_p70Bkjh4PU-J2n_-156" style="edgeStyle=orthogonalEdgeStyle;rounded=0;orthogonalLoop=1;jettySize=auto;html=1;exitX=1;exitY=0.5;exitDx=0;exitDy=0;entryX=0.5;entryY=0;entryDx=0;entryDy=0;" edge="1" parent="9lEx_p70Bkjh4PU-J2n_-153" source="9lEx_p70Bkjh4PU-J2n_-157" target="9lEx_p70Bkjh4PU-J2n_-155">
          <mxGeometry relative="1" as="geometry" />
        </mxCell>
        <mxCell id="9lEx_p70Bkjh4PU-J2n_-157" value="&lt;font style=&quot;font-size: 12px&quot;&gt;手工发起关停国际权限&lt;/font&gt;" style="whiteSpace=wrap;html=1;rounded=1;shadow=0;fontFamily=Verdana;fontSize=8;fontStyle=0;strokeWidth=1;fillColor=#fff2cc;strokeColor=#d6b656;" vertex="1" parent="9lEx_p70Bkjh4PU-J2n_-153">
          <mxGeometry x="345" y="37.75" width="95" height="41.5" as="geometry" />
        </mxCell>
        <mxCell id="9lEx_p70Bkjh4PU-J2n_-158" style="edgeStyle=orthogonalEdgeStyle;rounded=0;orthogonalLoop=1;jettySize=auto;html=1;exitX=0.5;exitY=1;exitDx=0;exitDy=0;" edge="1" parent="1" source="9lEx_p70Bkjh4PU-J2n_-161" target="9lEx_p70Bkjh4PU-J2n_-155">
          <mxGeometry relative="1" as="geometry" />
        </mxCell>
        <mxCell id="9lEx_p70Bkjh4PU-J2n_-159" value="否" style="edgeLabel;html=1;align=center;verticalAlign=middle;resizable=0;points=[];" vertex="1" connectable="0" parent="9lEx_p70Bkjh4PU-J2n_-158">
          <mxGeometry x="-0.4636" relative="1" as="geometry">
            <mxPoint x="64.83" as="offset" />
          </mxGeometry>
        </mxCell>
        <mxCell id="9lEx_p70Bkjh4PU-J2n_-160" value="是" style="edgeStyle=orthogonalEdgeStyle;rounded=0;orthogonalLoop=1;jettySize=auto;html=1;" edge="1" parent="1" source="9lEx_p70Bkjh4PU-J2n_-161" target="9lEx_p70Bkjh4PU-J2n_-157">
          <mxGeometry relative="1" as="geometry" />
        </mxCell>
        <mxCell id="9lEx_p70Bkjh4PU-J2n_-161" value="&lt;font style=&quot;font-size: 12px&quot;&gt;判断盗打是否属实&lt;/font&gt;" style="rhombus;whiteSpace=wrap;html=1;rounded=1;shadow=0;fontFamily=Verdana;fontSize=8;fontStyle=0;strokeWidth=1;fillColor=#fff2cc;strokeColor=#d6b656;" vertex="1" parent="1">
          <mxGeometry x="974" y="643" width="55" height="58.5" as="geometry" />
        </mxCell>
        <mxCell id="9lEx_p70Bkjh4PU-J2n_-162" value="" style="edgeStyle=orthogonalEdgeStyle;rounded=0;orthogonalLoop=1;jettySize=auto;html=1;" edge="1" parent="1" source="9lEx_p70Bkjh4PU-J2n_-154" target="9lEx_p70Bkjh4PU-J2n_-161">
          <mxGeometry relative="1" as="geometry" />
        </mxCell>
      </root>
    </mxGraphModel>
  </diagram>
</mxfile>
